<svg width="20" height="10" viewBox="0 0 20 10" fill="none" xmlns="http://www.w3.org/2000/svg">
<path d="M0.170819 1.95235C0.104676 1.88169 0.0539375 1.79881 0.0216477 1.70868C-0.0106422 1.61854 -0.0238178 1.52301 -0.0170889 1.42782C-0.01036 1.33262 0.0161349 1.23973 0.0608061 1.15471C0.105477 1.06968 0.167404 0.994286 0.242872 0.933035C0.318339 0.871784 0.405792 0.825942 0.499983 0.798261C0.594175 0.770579 0.693163 0.761628 0.79101 0.771945C0.888857 0.782262 0.983547 0.811633 1.0694 0.858297C1.15525 0.904961 1.23049 0.967957 1.29061 1.0435C2.02101 1.90304 2.83174 2.69534 3.71249 3.4103C5.77466 5.0497 7.91496 5.87807 10.0374 5.8765C12.1598 5.87492 14.2887 5.0497 16.3362 3.39136C17.1997 2.68308 17.9936 1.89868 18.7076 1.04824C18.8315 0.906721 19.0077 0.818101 19.1984 0.801509C19.3891 0.784917 19.5789 0.841685 19.7267 0.959556C19.8746 1.07743 19.9687 1.24694 19.9888 1.43151C20.0088 1.61608 19.9532 1.80089 19.8339 1.94604C19.3255 2.54632 18.7821 3.11791 18.2063 3.65802L19.1682 4.51322C19.2463 4.57325 19.3109 4.6482 19.3579 4.73342C19.4049 4.81864 19.4333 4.91231 19.4414 5.00862C19.4495 5.10493 19.4371 5.20182 19.4049 5.29329C19.3728 5.38476 19.3216 5.46886 19.2546 5.54036C19.1875 5.61186 19.106 5.66924 19.0152 5.70894C18.9243 5.74864 18.826 5.76982 18.7263 5.77116C18.6266 5.77249 18.5278 5.75396 18.4358 5.71671C18.3438 5.67946 18.2607 5.62429 18.1917 5.55461L17.1191 4.6079C16.4384 5.14995 15.7065 5.62858 14.9332 6.03744L15.5403 7.29973C15.61 7.46809 15.6102 7.65599 15.541 7.82453C15.4717 7.99306 15.3383 8.12934 15.1683 8.20516C14.9983 8.28098 14.8047 8.29053 14.6277 8.23183C14.4506 8.17314 14.3036 8.0507 14.217 7.88985L13.6083 6.62756C12.6929 6.97334 11.7298 7.18602 10.7502 7.2587V8.50522C10.7414 8.68671 10.6608 8.85793 10.5252 8.98334C10.3895 9.10875 10.2093 9.17871 10.0219 9.17871C9.83447 9.17871 9.65424 9.10875 9.51862 8.98334C9.383 8.85793 9.30239 8.68671 9.29354 8.50522V7.2587C8.31636 7.18425 7.35567 6.97162 6.44198 6.62756L5.83 7.88985C5.79218 7.97788 5.73638 8.05759 5.66596 8.12417C5.59554 8.19075 5.51194 8.24283 5.42022 8.27727C5.32849 8.31171 5.23052 8.3278 5.13221 8.32458C5.0339 8.32135 4.93727 8.29887 4.84816 8.2585C4.75904 8.21813 4.67927 8.16069 4.61365 8.08965C4.54803 8.0186 4.49792 7.93542 4.46633 7.84511C4.43474 7.7548 4.42232 7.65923 4.42983 7.56415C4.43734 7.46906 4.46461 7.37644 4.51001 7.29184L5.11874 6.02955C4.34589 5.62129 3.61313 5.14542 2.92961 4.6079L1.86353 5.55461C1.79446 5.62429 1.71137 5.67946 1.6194 5.71671C1.52742 5.75396 1.42854 5.77249 1.32887 5.77116C1.22921 5.76982 1.13089 5.74864 1.04001 5.70894C0.949139 5.66924 0.86765 5.61186 0.800601 5.54036C0.733552 5.46886 0.682373 5.38476 0.65024 5.29329C0.618106 5.20182 0.605704 5.10493 0.613802 5.00862C0.6219 4.91231 0.650326 4.81864 0.697315 4.73342C0.744305 4.6482 0.808857 4.57325 0.886965 4.51322L1.83586 3.67064C1.24748 3.12915 0.691561 2.55544 0.170819 1.95235V1.95235Z" fill="#A5A5A5"/>
</svg>
