<svg width="22" height="22" viewBox="0 0 22 22" fill="none" xmlns="http://www.w3.org/2000/svg">
<path d="M11 5.95833C14.4742 5.95833 17.5725 7.91083 19.085 11C17.5725 14.0892 14.4834 16.0417 11 16.0417C7.51669 16.0417 4.42752 14.0892 2.91502 11C4.42752 7.91083 7.52585 5.95833 11 5.95833ZM11 4.125C6.41669 4.125 2.50252 6.97583 0.916687 11C2.50252 15.0242 6.41669 17.875 11 17.875C15.5834 17.875 19.4975 15.0242 21.0834 11C19.4975 6.97583 15.5834 4.125 11 4.125ZM11 8.70833C12.265 8.70833 13.2917 9.735 13.2917 11C13.2917 12.265 12.265 13.2917 11 13.2917C9.73502 13.2917 8.70835 12.265 8.70835 11C8.70835 9.735 9.73502 8.70833 11 8.70833ZM11 6.875C8.72669 6.875 6.87502 8.72667 6.87502 11C6.87502 13.2733 8.72669 15.125 11 15.125C13.2734 15.125 15.125 13.2733 15.125 11C15.125 8.72667 13.2734 6.875 11 6.875Z" fill="#A5A5A5"/>
</svg>
