<svg width="14" height="18" viewBox="0 0 14 18" fill="none" xmlns="http://www.w3.org/2000/svg">
<path d="M7.00002 13.7143C7.96252 13.7143 8.75002 12.9429 8.75002 12C8.75002 11.0571 7.96252 10.2857 7.00002 10.2857C6.03752 10.2857 5.25002 11.0571 5.25002 12C5.25002 12.9429 6.03752 13.7143 7.00002 13.7143ZM12.25 6H11.375V4.28571C11.375 1.92 9.41502 0 7.00002 0C4.58502 0 2.62502 1.92 2.62502 4.28571V6H1.75002C0.787515 6 1.52588e-05 6.77143 1.52588e-05 7.71429V16.2857C1.52588e-05 17.2286 0.787515 18 1.75002 18H12.25C13.2125 18 14 17.2286 14 16.2857V7.71429C14 6.77143 13.2125 6 12.25 6ZM4.28751 4.28571C4.28751 2.82 5.50377 1.62857 7.00002 1.62857C8.49627 1.62857 9.71252 2.82 9.71252 4.28571V6H4.28751V4.28571ZM12.25 16.2857H1.75002V7.71429H12.25V16.2857Z" fill="#A5A5A5"/>
</svg>
