<svg width="18" height="19" viewBox="0 0 18 19" fill="none" xmlns="http://www.w3.org/2000/svg">
<g clip-path="url(#clip0_89_3612)">
<path d="M10.6875 2.1875C10.6875 3.11949 9.93164 3.875 9 3.875C8.06836 3.875 7.3125 3.11949 7.3125 2.1875C7.3125 1.25551 8.06836 0.5 9 0.5C9.93164 0.5 10.6875 1.25551 10.6875 2.1875ZM10.6875 16.8125C10.6875 17.7441 9.93164 18.5 9 18.5C8.06836 18.5 7.3125 17.7441 7.3125 16.8125C7.3125 15.8809 8.06836 15.125 9 15.125C9.93164 15.125 10.6875 15.8809 10.6875 16.8125ZM0 9.5C0 8.56836 0.755508 7.8125 1.6875 7.8125C2.61949 7.8125 3.375 8.56836 3.375 9.5C3.375 10.4316 2.61949 11.1875 1.6875 11.1875C0.755508 11.1875 0 10.4316 0 9.5ZM18 9.5C18 10.4316 17.2441 11.1875 16.3125 11.1875C15.3809 11.1875 14.625 10.4316 14.625 9.5C14.625 8.56836 15.3809 7.8125 16.3125 7.8125C17.2441 7.8125 18 8.56836 18 9.5ZM2.63602 15.8633C1.97684 15.2059 1.97684 14.1371 2.63602 13.4762C3.2952 12.8188 4.36289 12.8188 5.02383 13.4762C5.68125 14.1371 5.68125 15.2059 5.02383 15.8633C4.36289 16.5242 3.2952 16.5242 2.63602 15.8633ZM5.02383 5.52383C4.36289 6.18125 3.2952 6.18125 2.63602 5.52383C1.97719 4.86289 1.97719 3.7952 2.63602 3.13602C3.2952 2.47684 4.36289 2.47684 5.02383 3.13602C5.68125 3.7952 5.68125 4.86289 5.02383 5.52383ZM12.9762 13.4762C13.6371 12.8188 14.7059 12.8188 15.3633 13.4762C16.0242 14.1371 16.0242 15.2059 15.3633 15.8633C14.7059 16.5242 13.6371 16.5242 12.9762 15.8633C12.3188 15.2059 12.3188 14.1371 12.9762 13.4762Z" fill="#7464B3"/>
</g>
<defs>
<clipPath id="clip0_89_3612">
<rect width="18" height="18" fill="white" transform="translate(0 0.5)"/>
</clipPath>
</defs>
</svg>
