<svg width="197" height="41" viewBox="0 0 197 41" fill="none" xmlns="http://www.w3.org/2000/svg">
<g filter="url(#filter0_ii_57_4687)">
<path d="M0 20.5C0 9.17695 9.17695 0 20.5 0C31.823 0 41 9.17695 41 20.5C41 31.823 31.823 41 20.5 41C9.17695 41 0 31.823 0 20.5ZM29.773 16.9605C30.6459 16.0877 30.6459 14.6623 29.773 13.7895C28.9002 12.9166 27.4748 12.9166 26.602 13.7895L17.9375 22.4539L14.398 18.9145C13.5252 18.0416 12.0998 18.0416 11.227 18.9145C10.3541 19.7873 10.3541 21.2127 11.227 22.0855L16.352 27.2105C17.2248 28.0834 18.6502 28.0834 19.523 27.2105L29.773 16.9605Z" fill="#8E7ECD"/>
<path d="M0 20.5C0 9.17695 9.17695 0 20.5 0C31.823 0 41 9.17695 41 20.5C41 31.823 31.823 41 20.5 41C9.17695 41 0 31.823 0 20.5ZM29.773 16.9605C30.6459 16.0877 30.6459 14.6623 29.773 13.7895C28.9002 12.9166 27.4748 12.9166 26.602 13.7895L17.9375 22.4539L14.398 18.9145C13.5252 18.0416 12.0998 18.0416 11.227 18.9145C10.3541 19.7873 10.3541 21.2127 11.227 22.0855L16.352 27.2105C17.2248 28.0834 18.6502 28.0834 19.523 27.2105L29.773 16.9605Z" fill="url(#paint0_radial_57_4687)" fill-opacity="0.6"/>
</g>
<g filter="url(#filter1_ii_57_4687)">
<path d="M57.512 14.992H62.144L61.04 16.36C62.504 16.936 64.304 17.92 65.168 18.664L66.608 16.84C65.84 16.216 64.424 15.52 63.152 14.992H72.392V17.488H75.32V12.448H66.56C66.368 11.776 66.08 10.984 65.816 10.336L63.056 10.816C63.248 11.296 63.44 11.896 63.56 12.448H54.728V17.488H57.512V14.992ZM57.032 17.584C56.384 18.976 55.28 20.584 53.984 21.568L56.288 22.96C57.608 21.832 58.616 20.128 59.336 18.616L57.032 17.584ZM68.288 24.448C70.664 24.448 71.408 23.752 71.72 20.896C71.024 20.752 69.968 20.392 69.44 20.008C69.32 21.928 69.128 22.24 68.072 22.24H64.64C67.304 20.728 69.656 18.88 71.48 16.72L69.08 15.544C67.472 17.512 65.192 19.192 62.528 20.56V17.392H59.96V21.448V21.736C57.992 22.576 55.88 23.248 53.72 23.728C54.224 24.28 55.016 25.456 55.352 26.056C57.248 25.528 59.168 24.832 61.04 24.016C61.616 24.328 62.528 24.448 63.824 24.448H68.288ZM70.664 29.512H66.416V25H63.512V29.512H59.432V26.152H56.624V32.176H70.664V32.968H73.52V25.768H70.664V29.512ZM70.232 19.096C71.648 20.44 73.304 22.288 74.024 23.488L76.208 21.976C75.392 20.752 73.664 18.952 72.248 17.752L70.232 19.096ZM83.912 27.712H82.016V21.616H83.912V27.712ZM86.384 30.184V19.168H82.16C82.568 17.56 82.88 15.856 83.12 14.128H87.08V11.56H78.008V14.128H80.456C79.952 18.04 79.04 21.688 77.384 24.064C77.888 24.712 78.656 26.128 78.92 26.8C79.136 26.512 79.352 26.2 79.544 25.864V32.056H82.016V30.184H86.384ZM87.896 32.008C88.976 30.616 89.384 28.384 89.6 26.248L87.536 25.744C87.32 27.688 86.864 29.704 85.928 30.928L87.896 32.008ZM89.864 26.752C90.128 28.12 90.224 29.944 90.176 31.144L92.144 30.832C92.168 29.656 92 27.856 91.712 26.488L89.864 26.752ZM92.384 26.608C92.744 27.736 93.128 29.272 93.224 30.232L95.048 29.704C94.928 28.744 94.544 27.28 94.088 26.128L92.384 26.608ZM90.44 21.136H92.792V22.6H90.44V21.136ZM92.792 13.984V15.304H90.44V13.984H92.792ZM92.792 18.928H90.44V17.536H92.792V18.928ZM95.312 22.6V21.136H98.744V18.928H95.312V17.536H98.744V15.304H95.312V13.984H99.464V11.536H87.848V25.048H97.256C97.208 25.912 97.16 26.632 97.112 27.28C96.848 26.704 96.512 26.08 96.152 25.576L94.736 26.152C95.264 27.04 95.792 28.192 96.008 28.96L97.016 28.528C96.872 29.68 96.728 30.256 96.536 30.472C96.32 30.712 96.128 30.784 95.792 30.784C95.408 30.784 94.64 30.76 93.776 30.664C94.184 31.336 94.448 32.368 94.496 33.112C95.528 33.136 96.536 33.136 97.112 33.04C97.784 32.944 98.288 32.752 98.768 32.152C99.392 31.384 99.656 29.176 99.872 23.632C99.896 23.296 99.92 22.6 99.92 22.6H95.312ZM107.48 23.8V22.72H111.464V23.8H107.48ZM107.48 19.936H111.464V21.016H107.48V19.936ZM118.544 19.936V21.016H114.344V19.936H118.544ZM118.544 23.8H114.344V22.72H118.544V23.8ZM114.344 30.16V28.888H122.36V26.752H114.344V25.672H121.472V18.064H114.344V17.152H123.752V14.92H114.344V13.672C116.96 13.48 119.456 13.216 121.544 12.88L120.224 10.672C116.168 11.344 109.664 11.752 104.072 11.872C104.312 12.448 104.624 13.408 104.648 14.056C106.808 14.032 109.16 13.96 111.464 13.864V14.92H102.296V17.152H111.464V18.064H104.696V25.672H111.464V26.752H103.904V28.888H111.464V30.16H102.152V32.416H123.92V30.16H114.344ZM134.336 17.968H126.992V20.128H134.336V18.928C134.864 19.432 135.608 20.272 135.896 20.752C138.92 19.144 139.568 16.432 139.568 14.104V14.08H142.448V16.648C142.448 19.024 142.88 20.032 145.136 20.032H146.384C146.864 20.032 147.392 20.008 147.728 19.84C147.632 19.192 147.584 18.208 147.536 17.488C147.224 17.584 146.672 17.656 146.36 17.656H145.4C145.112 17.656 145.064 17.368 145.064 16.672V11.44H136.976V14.008C136.976 15.568 136.688 17.248 134.336 18.544V17.968ZM135.344 14.632H130.784L132.368 13.768C131.984 12.88 131.264 11.56 130.616 10.576L128.384 11.608C128.912 12.52 129.56 13.72 129.944 14.632H125.96V16.888H135.344V14.632ZM134.384 21.184H126.992V23.344H134.384V21.184ZM143.6 23.704C142.952 25.024 142.088 26.152 141.032 27.112C139.856 26.128 138.896 25 138.2 23.704H143.6ZM131.888 29.464H129.44V26.776H131.888V29.464ZM145.424 20.92L144.968 21.04H134.96V23.704H137.168L135.608 24.256C136.472 25.96 137.528 27.472 138.776 28.72C137.456 29.488 135.968 30.04 134.36 30.424V24.496H127.016V32.776H129.44V31.768H134.36V30.904C134.792 31.576 135.224 32.44 135.464 33.04C137.528 32.488 139.4 31.672 141.056 30.616C142.64 31.672 144.488 32.464 146.6 32.968C146.984 32.2 147.728 30.976 148.352 30.4C146.504 30.04 144.848 29.44 143.384 28.672C145.112 26.92 146.432 24.64 147.224 21.688L145.424 20.92ZM167.84 18.328C167.264 20.272 166.472 22.048 165.536 23.656C165.128 21.736 164.792 19.48 164.576 17.08H171.992V14.248H169.496L170.648 13.024C169.808 12.232 168.056 11.128 166.736 10.456L165.008 12.16C165.992 12.76 167.192 13.528 168.08 14.248H164.408C164.36 13.072 164.336 11.896 164.36 10.696H161.36C161.36 11.896 161.408 13.072 161.456 14.248H151.664V21.256C151.664 24.376 151.496 28.552 149.672 31.432C150.32 31.768 151.592 32.824 152.096 33.376C154.064 30.448 154.568 25.768 154.664 22.264H157.784C157.712 25.288 157.616 26.44 157.376 26.776C157.184 27.016 156.992 27.064 156.656 27.064C156.272 27.064 155.456 27.04 154.592 26.968C155.024 27.688 155.336 28.792 155.384 29.632C156.488 29.656 157.52 29.656 158.144 29.56C158.864 29.44 159.344 29.224 159.8 28.6C160.352 27.904 160.496 25.768 160.568 20.728C160.568 20.392 160.592 19.648 160.592 19.648H154.664V17.08H161.624C161.936 20.68 162.464 24.04 163.28 26.752C161.888 28.312 160.232 29.632 158.384 30.64C158.984 31.192 160.016 32.368 160.448 32.992C161.936 32.08 163.28 31 164.504 29.728C165.56 31.696 166.88 32.896 168.56 32.896C170.792 32.896 171.752 31.84 172.208 27.4C171.44 27.088 170.432 26.464 169.784 25.792C169.664 28.792 169.376 29.992 168.8 29.992C168.032 29.992 167.264 28.984 166.568 27.256C168.296 24.928 169.712 22.144 170.696 19.024L167.84 18.328ZM183.272 23.704C182.168 23.992 181.064 24.28 179.96 24.568V15.952H183.032V13.264H174.008V15.952H177.128V25.264C175.856 25.6 174.656 25.864 173.672 26.08L174.368 29.032C177.008 28.312 180.464 27.352 183.632 26.416L183.272 23.704ZM189.608 15.76C189.632 14.272 189.656 12.688 189.656 11.08H186.752C186.752 12.712 186.752 14.296 186.728 15.76H183.368V18.496H186.608C186.296 23.992 185.072 28.168 180.416 30.808C181.112 31.336 182 32.368 182.432 33.112C187.688 29.968 189.08 24.904 189.488 18.496H192.704C192.488 25.984 192.224 29.008 191.624 29.656C191.36 29.992 191.12 30.064 190.688 30.064C190.136 30.064 188.96 30.064 187.712 29.968C188.192 30.76 188.528 31.96 188.576 32.776C189.92 32.824 191.216 32.824 192.032 32.704C192.944 32.56 193.544 32.296 194.144 31.432C195.008 30.28 195.272 26.776 195.56 17.08C195.584 16.72 195.584 15.76 195.584 15.76H189.608Z" fill="#8E7ECD"/>
<path d="M57.512 14.992H62.144L61.04 16.36C62.504 16.936 64.304 17.92 65.168 18.664L66.608 16.84C65.84 16.216 64.424 15.52 63.152 14.992H72.392V17.488H75.32V12.448H66.56C66.368 11.776 66.08 10.984 65.816 10.336L63.056 10.816C63.248 11.296 63.44 11.896 63.56 12.448H54.728V17.488H57.512V14.992ZM57.032 17.584C56.384 18.976 55.28 20.584 53.984 21.568L56.288 22.96C57.608 21.832 58.616 20.128 59.336 18.616L57.032 17.584ZM68.288 24.448C70.664 24.448 71.408 23.752 71.72 20.896C71.024 20.752 69.968 20.392 69.44 20.008C69.32 21.928 69.128 22.24 68.072 22.24H64.64C67.304 20.728 69.656 18.88 71.48 16.72L69.08 15.544C67.472 17.512 65.192 19.192 62.528 20.56V17.392H59.96V21.448V21.736C57.992 22.576 55.88 23.248 53.72 23.728C54.224 24.28 55.016 25.456 55.352 26.056C57.248 25.528 59.168 24.832 61.04 24.016C61.616 24.328 62.528 24.448 63.824 24.448H68.288ZM70.664 29.512H66.416V25H63.512V29.512H59.432V26.152H56.624V32.176H70.664V32.968H73.52V25.768H70.664V29.512ZM70.232 19.096C71.648 20.44 73.304 22.288 74.024 23.488L76.208 21.976C75.392 20.752 73.664 18.952 72.248 17.752L70.232 19.096ZM83.912 27.712H82.016V21.616H83.912V27.712ZM86.384 30.184V19.168H82.16C82.568 17.56 82.88 15.856 83.12 14.128H87.08V11.56H78.008V14.128H80.456C79.952 18.04 79.04 21.688 77.384 24.064C77.888 24.712 78.656 26.128 78.92 26.8C79.136 26.512 79.352 26.2 79.544 25.864V32.056H82.016V30.184H86.384ZM87.896 32.008C88.976 30.616 89.384 28.384 89.6 26.248L87.536 25.744C87.32 27.688 86.864 29.704 85.928 30.928L87.896 32.008ZM89.864 26.752C90.128 28.12 90.224 29.944 90.176 31.144L92.144 30.832C92.168 29.656 92 27.856 91.712 26.488L89.864 26.752ZM92.384 26.608C92.744 27.736 93.128 29.272 93.224 30.232L95.048 29.704C94.928 28.744 94.544 27.28 94.088 26.128L92.384 26.608ZM90.44 21.136H92.792V22.6H90.44V21.136ZM92.792 13.984V15.304H90.44V13.984H92.792ZM92.792 18.928H90.44V17.536H92.792V18.928ZM95.312 22.6V21.136H98.744V18.928H95.312V17.536H98.744V15.304H95.312V13.984H99.464V11.536H87.848V25.048H97.256C97.208 25.912 97.16 26.632 97.112 27.28C96.848 26.704 96.512 26.08 96.152 25.576L94.736 26.152C95.264 27.04 95.792 28.192 96.008 28.96L97.016 28.528C96.872 29.68 96.728 30.256 96.536 30.472C96.32 30.712 96.128 30.784 95.792 30.784C95.408 30.784 94.64 30.76 93.776 30.664C94.184 31.336 94.448 32.368 94.496 33.112C95.528 33.136 96.536 33.136 97.112 33.04C97.784 32.944 98.288 32.752 98.768 32.152C99.392 31.384 99.656 29.176 99.872 23.632C99.896 23.296 99.92 22.6 99.92 22.6H95.312ZM107.48 23.8V22.72H111.464V23.8H107.48ZM107.48 19.936H111.464V21.016H107.48V19.936ZM118.544 19.936V21.016H114.344V19.936H118.544ZM118.544 23.8H114.344V22.72H118.544V23.8ZM114.344 30.16V28.888H122.36V26.752H114.344V25.672H121.472V18.064H114.344V17.152H123.752V14.92H114.344V13.672C116.96 13.48 119.456 13.216 121.544 12.88L120.224 10.672C116.168 11.344 109.664 11.752 104.072 11.872C104.312 12.448 104.624 13.408 104.648 14.056C106.808 14.032 109.16 13.96 111.464 13.864V14.92H102.296V17.152H111.464V18.064H104.696V25.672H111.464V26.752H103.904V28.888H111.464V30.16H102.152V32.416H123.92V30.16H114.344ZM134.336 17.968H126.992V20.128H134.336V18.928C134.864 19.432 135.608 20.272 135.896 20.752C138.92 19.144 139.568 16.432 139.568 14.104V14.08H142.448V16.648C142.448 19.024 142.88 20.032 145.136 20.032H146.384C146.864 20.032 147.392 20.008 147.728 19.84C147.632 19.192 147.584 18.208 147.536 17.488C147.224 17.584 146.672 17.656 146.36 17.656H145.4C145.112 17.656 145.064 17.368 145.064 16.672V11.44H136.976V14.008C136.976 15.568 136.688 17.248 134.336 18.544V17.968ZM135.344 14.632H130.784L132.368 13.768C131.984 12.88 131.264 11.56 130.616 10.576L128.384 11.608C128.912 12.52 129.56 13.72 129.944 14.632H125.96V16.888H135.344V14.632ZM134.384 21.184H126.992V23.344H134.384V21.184ZM143.6 23.704C142.952 25.024 142.088 26.152 141.032 27.112C139.856 26.128 138.896 25 138.2 23.704H143.6ZM131.888 29.464H129.44V26.776H131.888V29.464ZM145.424 20.92L144.968 21.04H134.96V23.704H137.168L135.608 24.256C136.472 25.96 137.528 27.472 138.776 28.72C137.456 29.488 135.968 30.04 134.36 30.424V24.496H127.016V32.776H129.44V31.768H134.36V30.904C134.792 31.576 135.224 32.44 135.464 33.04C137.528 32.488 139.4 31.672 141.056 30.616C142.64 31.672 144.488 32.464 146.6 32.968C146.984 32.2 147.728 30.976 148.352 30.4C146.504 30.04 144.848 29.44 143.384 28.672C145.112 26.92 146.432 24.64 147.224 21.688L145.424 20.92ZM167.84 18.328C167.264 20.272 166.472 22.048 165.536 23.656C165.128 21.736 164.792 19.48 164.576 17.08H171.992V14.248H169.496L170.648 13.024C169.808 12.232 168.056 11.128 166.736 10.456L165.008 12.16C165.992 12.76 167.192 13.528 168.08 14.248H164.408C164.36 13.072 164.336 11.896 164.36 10.696H161.36C161.36 11.896 161.408 13.072 161.456 14.248H151.664V21.256C151.664 24.376 151.496 28.552 149.672 31.432C150.32 31.768 151.592 32.824 152.096 33.376C154.064 30.448 154.568 25.768 154.664 22.264H157.784C157.712 25.288 157.616 26.44 157.376 26.776C157.184 27.016 156.992 27.064 156.656 27.064C156.272 27.064 155.456 27.04 154.592 26.968C155.024 27.688 155.336 28.792 155.384 29.632C156.488 29.656 157.52 29.656 158.144 29.56C158.864 29.44 159.344 29.224 159.8 28.6C160.352 27.904 160.496 25.768 160.568 20.728C160.568 20.392 160.592 19.648 160.592 19.648H154.664V17.08H161.624C161.936 20.68 162.464 24.04 163.28 26.752C161.888 28.312 160.232 29.632 158.384 30.64C158.984 31.192 160.016 32.368 160.448 32.992C161.936 32.08 163.28 31 164.504 29.728C165.56 31.696 166.88 32.896 168.56 32.896C170.792 32.896 171.752 31.84 172.208 27.4C171.44 27.088 170.432 26.464 169.784 25.792C169.664 28.792 169.376 29.992 168.8 29.992C168.032 29.992 167.264 28.984 166.568 27.256C168.296 24.928 169.712 22.144 170.696 19.024L167.84 18.328ZM183.272 23.704C182.168 23.992 181.064 24.28 179.96 24.568V15.952H183.032V13.264H174.008V15.952H177.128V25.264C175.856 25.6 174.656 25.864 173.672 26.08L174.368 29.032C177.008 28.312 180.464 27.352 183.632 26.416L183.272 23.704ZM189.608 15.76C189.632 14.272 189.656 12.688 189.656 11.08H186.752C186.752 12.712 186.752 14.296 186.728 15.76H183.368V18.496H186.608C186.296 23.992 185.072 28.168 180.416 30.808C181.112 31.336 182 32.368 182.432 33.112C187.688 29.968 189.08 24.904 189.488 18.496H192.704C192.488 25.984 192.224 29.008 191.624 29.656C191.36 29.992 191.12 30.064 190.688 30.064C190.136 30.064 188.96 30.064 187.712 29.968C188.192 30.76 188.528 31.96 188.576 32.776C189.92 32.824 191.216 32.824 192.032 32.704C192.944 32.56 193.544 32.296 194.144 31.432C195.008 30.28 195.272 26.776 195.56 17.08C195.584 16.72 195.584 15.76 195.584 15.76H189.608Z" fill="url(#paint1_radial_57_4687)" fill-opacity="0.6"/>
</g>
<defs>
<filter id="filter0_ii_57_4687" x="-1" y="-1" width="43" height="43" filterUnits="userSpaceOnUse" color-interpolation-filters="sRGB">
<feFlood flood-opacity="0" result="BackgroundImageFix"/>
<feBlend mode="normal" in="SourceGraphic" in2="BackgroundImageFix" result="shape"/>
<feColorMatrix in="SourceAlpha" type="matrix" values="0 0 0 0 0 0 0 0 0 0 0 0 0 0 0 0 0 0 127 0" result="hardAlpha"/>
<feOffset dx="1" dy="1"/>
<feGaussianBlur stdDeviation="0.5"/>
<feComposite in2="hardAlpha" operator="arithmetic" k2="-1" k3="1"/>
<feColorMatrix type="matrix" values="0 0 0 0 0.936461 0 0 0 0 0.803056 0 0 0 0 0.983333 0 0 0 0.35 0"/>
<feBlend mode="normal" in2="shape" result="effect1_innerShadow_57_4687"/>
<feColorMatrix in="SourceAlpha" type="matrix" values="0 0 0 0 0 0 0 0 0 0 0 0 0 0 0 0 0 0 127 0" result="hardAlpha"/>
<feOffset dx="-1" dy="-1"/>
<feGaussianBlur stdDeviation="0.5"/>
<feComposite in2="hardAlpha" operator="arithmetic" k2="-1" k3="1"/>
<feColorMatrix type="matrix" values="0 0 0 0 0.0946667 0 0 0 0 0 0 0 0 0 0.295833 0 0 0 0.25 0"/>
<feBlend mode="normal" in2="effect1_innerShadow_57_4687" result="effect2_innerShadow_57_4687"/>
</filter>
<filter id="filter1_ii_57_4687" x="52.7197" y="9.33594" width="143.864" height="25.04" filterUnits="userSpaceOnUse" color-interpolation-filters="sRGB">
<feFlood flood-opacity="0" result="BackgroundImageFix"/>
<feBlend mode="normal" in="SourceGraphic" in2="BackgroundImageFix" result="shape"/>
<feColorMatrix in="SourceAlpha" type="matrix" values="0 0 0 0 0 0 0 0 0 0 0 0 0 0 0 0 0 0 127 0" result="hardAlpha"/>
<feOffset dx="1" dy="1"/>
<feGaussianBlur stdDeviation="0.5"/>
<feComposite in2="hardAlpha" operator="arithmetic" k2="-1" k3="1"/>
<feColorMatrix type="matrix" values="0 0 0 0 0.936461 0 0 0 0 0.803056 0 0 0 0 0.983333 0 0 0 0.35 0"/>
<feBlend mode="normal" in2="shape" result="effect1_innerShadow_57_4687"/>
<feColorMatrix in="SourceAlpha" type="matrix" values="0 0 0 0 0 0 0 0 0 0 0 0 0 0 0 0 0 0 127 0" result="hardAlpha"/>
<feOffset dx="-1" dy="-1"/>
<feGaussianBlur stdDeviation="0.5"/>
<feComposite in2="hardAlpha" operator="arithmetic" k2="-1" k3="1"/>
<feColorMatrix type="matrix" values="0 0 0 0 0.0946667 0 0 0 0 0 0 0 0 0 0.295833 0 0 0 0.25 0"/>
<feBlend mode="normal" in2="effect1_innerShadow_57_4687" result="effect2_innerShadow_57_4687"/>
</filter>
<radialGradient id="paint0_radial_57_4687" cx="0" cy="0" r="1" gradientUnits="userSpaceOnUse" gradientTransform="translate(35.8271) rotate(90) scale(55.0938)">
<stop stop-color="white" stop-opacity="0"/>
<stop offset="1" stop-color="#D0E5FF" stop-opacity="0.5"/>
</radialGradient>
<radialGradient id="paint1_radial_57_4687" cx="0" cy="0" r="1" gradientUnits="userSpaceOnUse" gradientTransform="translate(178.832 3) rotate(90) scale(47.0313 193.5)">
<stop stop-color="white" stop-opacity="0"/>
<stop offset="1" stop-color="#D0E5FF" stop-opacity="0.5"/>
</radialGradient>
</defs>
</svg>
