<svg width="31" height="32" viewBox="0 0 31 32" fill="none" xmlns="http://www.w3.org/2000/svg">
<g filter="url(#filter0_dii_839_5112)">
<path d="M15.4094 28C17.2061 28 18.6761 26.7077 18.6761 25.1282H12.1428C12.1428 26.7077 13.5964 28 15.4094 28ZM25.2094 19.3846V15.7949V12.2051C25.2094 7.79692 22.5308 4.10667 17.8594 3.13026V2.15385C17.8594 0.962051 16.7651 0 15.4094 0C14.0538 0 12.9594 0.962051 12.9594 2.15385V3.13026C8.27177 4.10667 5.60944 7.78256 5.60944 12.2051V19.3846L2.34277 22.2564V23.6923H28.4761V22.2564L25.2094 19.3846Z" fill="url(#paint0_linear_839_5112)"/>
</g>
<defs>
<filter id="filter0_dii_839_5112" x="0.342773" y="-1" width="30.1338" height="33" filterUnits="userSpaceOnUse" color-interpolation-filters="sRGB">
<feFlood flood-opacity="0" result="BackgroundImageFix"/>
<feColorMatrix in="SourceAlpha" type="matrix" values="0 0 0 0 0 0 0 0 0 0 0 0 0 0 0 0 0 0 127 0" result="hardAlpha"/>
<feOffset dy="2"/>
<feGaussianBlur stdDeviation="1"/>
<feComposite in2="hardAlpha" operator="out"/>
<feColorMatrix type="matrix" values="0 0 0 0 0 0 0 0 0 0 0 0 0 0 0 0 0 0 0.22 0"/>
<feBlend mode="normal" in2="BackgroundImageFix" result="effect1_dropShadow_839_5112"/>
<feBlend mode="normal" in="SourceGraphic" in2="effect1_dropShadow_839_5112" result="shape"/>
<feColorMatrix in="SourceAlpha" type="matrix" values="0 0 0 0 0 0 0 0 0 0 0 0 0 0 0 0 0 0 127 0" result="hardAlpha"/>
<feOffset dx="1" dy="1"/>
<feGaussianBlur stdDeviation="0.5"/>
<feComposite in2="hardAlpha" operator="arithmetic" k2="-1" k3="1"/>
<feColorMatrix type="matrix" values="0 0 0 0 1 0 0 0 0 1 0 0 0 0 1 0 0 0 0.35 0"/>
<feBlend mode="normal" in2="shape" result="effect2_innerShadow_839_5112"/>
<feColorMatrix in="SourceAlpha" type="matrix" values="0 0 0 0 0 0 0 0 0 0 0 0 0 0 0 0 0 0 127 0" result="hardAlpha"/>
<feOffset dx="-1" dy="-1"/>
<feGaussianBlur stdDeviation="0.5"/>
<feComposite in2="hardAlpha" operator="arithmetic" k2="-1" k3="1"/>
<feColorMatrix type="matrix" values="0 0 0 0 0.2125 0 0 0 0 0.1275 0 0 0 0 0 0 0 0 0.25 0"/>
<feBlend mode="normal" in2="effect2_innerShadow_839_5112" result="effect3_innerShadow_839_5112"/>
</filter>
<linearGradient id="paint0_linear_839_5112" x1="29.7828" y1="18.9" x2="2.03004" y2="10.8825" gradientUnits="userSpaceOnUse">
<stop stop-color="#FF6B00"/>
<stop offset="1" stop-color="#FFE68F"/>
</linearGradient>
</defs>
</svg>
