<svg width="27" height="24" viewBox="0 0 27 24" fill="none" xmlns="http://www.w3.org/2000/svg">
<g filter="url(#filter0_ii_832_5122)">
<path d="M12.2885 21.5304L12.2871 21.5291C8.86149 18.4569 6.09987 15.978 4.18259 13.6597C2.27645 11.3549 1.3125 9.33328 1.3125 7.19346C1.3125 3.72781 4.05465 1 7.58597 1C9.58835 1 11.5227 1.92674 12.7792 3.386L13.537 4.26611L14.2948 3.386C15.5513 1.92674 17.4856 1 19.488 1C23.0193 1 25.7615 3.72781 25.7615 7.19346C25.7615 9.33329 24.7975 11.3549 22.8912 13.6616C20.9738 15.9815 18.2124 18.4635 14.7871 21.542C14.7867 21.5423 14.7864 21.5426 14.7861 21.5429L13.5395 22.6567L12.2885 21.5304Z" stroke="#5B4B98" stroke-width="2"/>
</g>
<defs>
<filter id="filter0_ii_832_5122" x="-1.6875" y="-1" width="29.4492" height="26" filterUnits="userSpaceOnUse" color-interpolation-filters="sRGB">
<feFlood flood-opacity="0" result="BackgroundImageFix"/>
<feBlend mode="normal" in="SourceGraphic" in2="BackgroundImageFix" result="shape"/>
<feColorMatrix in="SourceAlpha" type="matrix" values="0 0 0 0 0 0 0 0 0 0 0 0 0 0 0 0 0 0 127 0" result="hardAlpha"/>
<feOffset dx="1" dy="1"/>
<feGaussianBlur stdDeviation="0.5"/>
<feComposite in2="hardAlpha" operator="arithmetic" k2="-1" k3="1"/>
<feColorMatrix type="matrix" values="0 0 0 0 1 0 0 0 0 1 0 0 0 0 1 0 0 0 0.48 0"/>
<feBlend mode="normal" in2="shape" result="effect1_innerShadow_832_5122"/>
<feColorMatrix in="SourceAlpha" type="matrix" values="0 0 0 0 0 0 0 0 0 0 0 0 0 0 0 0 0 0 127 0" result="hardAlpha"/>
<feOffset dx="-2" dy="-1"/>
<feGaussianBlur stdDeviation="1"/>
<feComposite in2="hardAlpha" operator="arithmetic" k2="-1" k3="1"/>
<feColorMatrix type="matrix" values="0 0 0 0 0.295833 0 0 0 0 0 0 0 0 0 0.0710001 0 0 0 0.25 0"/>
<feBlend mode="normal" in2="effect1_innerShadow_832_5122" result="effect2_innerShadow_832_5122"/>
</filter>
</defs>
</svg>
