<svg width="37" height="36" viewBox="0 0 37 36" fill="none" xmlns="http://www.w3.org/2000/svg">
<rect x="0.5" width="36" height="36" rx="18" fill="white"/>
<g clip-path="url(#clip0_7_947)">
<path d="M30.266 18.2764C30.266 17.4607 30.1999 16.6406 30.0588 15.8381H18.74V20.459H25.2217C24.9528 21.9494 24.0885 23.2678 22.823 24.1056V27.1039H26.69C28.9608 25.0139 30.266 21.9273 30.266 18.2764Z" fill="#4285F4"/>
<path d="M18.7401 30.0008C21.9766 30.0008 24.7059 28.9382 26.6945 27.1039L22.8276 24.1055C21.7517 24.8375 20.3627 25.252 18.7445 25.252C15.6139 25.252 12.9595 23.1399 12.007 20.3003H8.0166V23.3912C10.0537 27.4434 14.2029 30.0008 18.7401 30.0008Z" fill="#34A853"/>
<path d="M12.0025 20.3003C11.4999 18.8099 11.4999 17.1961 12.0025 15.7058V12.6148H8.01649C6.31449 16.0056 6.31449 20.0005 8.01649 23.3912L12.0025 20.3003Z" fill="#FBBC04"/>
<path d="M18.7401 10.7497C20.4509 10.7232 22.1044 11.367 23.3434 12.5487L26.7695 9.12262C24.6001 7.0855 21.7208 5.96553 18.7401 6.00081C14.2029 6.00081 10.0537 8.55822 8.0166 12.6148L12.0026 15.7058C12.9506 12.8617 15.6095 10.7497 18.7401 10.7497Z" fill="#EA4335"/>
</g>
<defs>
<clipPath id="clip0_7_947">
<rect width="24" height="24" fill="white" transform="translate(6.5 6)"/>
</clipPath>
</defs>
</svg>
