<svg width="19" height="19" viewBox="0 0 19 19" fill="none" xmlns="http://www.w3.org/2000/svg">
<path d="M13.8455 0.927084C14.8883 -0.11632 16.5805 -0.11632 17.6232 0.927084L18.0723 1.37685C19.115 2.42036 19.115 4.11218 18.0723 5.15495L10.7543 12.4766C10.4314 12.7958 10.0344 13.0296 9.59648 13.1557L5.88555 14.2171C5.57383 14.3061 5.23984 14.2171 5.00977 13.9573C4.7834 13.7606 4.69434 13.4266 4.7834 13.1149L5.84473 9.40398C5.9709 8.96608 6.20469 8.56901 6.52383 8.24616L13.8455 0.927084ZM16.3318 2.18658C16.0164 1.83886 15.4523 1.83886 15.1035 2.18658L14.0236 3.26609L15.7344 4.97683L16.8143 3.86355C17.1631 3.54812 17.1631 2.98406 16.8143 2.63634L16.3318 2.18658ZM7.55918 9.89382L6.93574 12.0647L9.10664 11.4413C9.25508 11.4005 9.38496 11.3225 9.49258 11.2149L14.4764 6.23484L12.7656 4.52409L7.78555 9.50788C7.67793 9.6155 7.6 9.74538 7.55918 9.89382ZM7.42188 2.37546C7.91543 2.37546 8.3125 2.77439 8.3125 3.26609C8.3125 3.75964 7.91543 4.15671 7.42188 4.15671H3.26562C2.44588 4.15671 1.78125 4.82097 1.78125 5.64109V15.7348C1.78125 16.5549 2.44588 17.2192 3.26562 17.2192H13.3594C14.1795 17.2192 14.8438 16.5549 14.8438 15.7348V11.5786C14.8438 11.085 15.2408 10.688 15.7344 10.688C16.2279 10.688 16.625 11.085 16.625 11.5786V15.7348C16.625 17.5383 15.1629 19.0005 13.3594 19.0005H3.26562C1.46211 19.0005 0 17.5383 0 15.7348V5.64109C0 3.83757 1.46211 2.37546 3.26562 2.37546H7.42188Z" fill="#F7F4FF"/>
</svg>
