<svg width="22" height="17" viewBox="0 0 22 17" fill="none" xmlns="http://www.w3.org/2000/svg">
<g clip-path="url(#clip0_40_2938)">
<path d="M6.39374 4.00097C7.18437 2.83488 8.43562 1.98687 9.89999 1.69999V1.06249C9.89999 0.475795 10.3916 3.99868e-06 11 3.99868e-06C11.6084 3.99868e-06 12.1 0.475795 12.1 1.06249V1.69999C14.6094 2.1924 16.5 4.33632 16.5 6.90624V7.53046C16.5 9.09433 17.0947 10.5984 18.1672 11.7672L18.4216 12.0428C18.7103 12.3582 18.7825 12.8031 18.6037 13.185C18.5659 13.1982 18.59 13.185 18.5831 13.2281L21.6837 15.5756C22.0412 15.8478 22.1066 16.3492 21.8247 16.6945C21.5428 17.0398 21.0237 17.1029 20.6662 16.8307L0.316106 1.42408C-0.0424937 1.15247 -0.105366 0.651771 0.175719 0.30533C0.456838 -0.041045 0.975213 -0.101774 1.33409 0.169728L6.39374 4.00097ZM5.49999 7.53046V7.37441L13.9631 13.8125H4.39999C3.96687 13.8125 3.54406 13.5668 3.39659 13.185C3.21921 12.8031 3.29002 12.3582 3.57843 12.0428L3.83281 11.7672C4.90531 10.5984 5.49999 9.09433 5.49999 7.53046ZM11 17C10.4156 17 9.85531 16.7775 9.44281 16.3791C9.03031 15.9807 8.79999 15.4096 8.79999 14.875H13.2C13.2 15.4096 12.9697 15.9807 12.5572 16.3791C12.1447 16.7775 11.5534 17 11 17Z" fill="#4E3E8B"/>
</g>
<defs>
<clipPath id="clip0_40_2938">
<rect width="22" height="17" fill="white"/>
</clipPath>
</defs>
</svg>
