<svg width="18" height="20" viewBox="0 0 18 20" fill="none" xmlns="http://www.w3.org/2000/svg">
<path d="M13.5 6.66634H12.75V4.99967C12.75 2.69967 11.07 0.833008 9 0.833008C6.93 0.833008 5.25 2.69967 5.25 4.99967V6.66634H4.5C3.675 6.66634 3 7.41634 3 8.33301V16.6663C3 17.583 3.675 18.333 4.5 18.333H13.5C14.325 18.333 15 17.583 15 16.6663V8.33301C15 7.41634 14.325 6.66634 13.5 6.66634ZM9 14.1663C8.175 14.1663 7.5 13.4163 7.5 12.4997C7.5 11.583 8.175 10.833 9 10.833C9.825 10.833 10.5 11.583 10.5 12.4997C10.5 13.4163 9.825 14.1663 9 14.1663ZM11.325 6.66634H6.675V4.99967C6.675 3.57467 7.7175 2.41634 9 2.41634C10.2825 2.41634 11.325 3.57467 11.325 4.99967V6.66634Z" fill="#3E3E3E"/>
</svg>
