<svg width="104" height="40" viewBox="0 0 104 40" fill="none" xmlns="http://www.w3.org/2000/svg">
<rect x="14.35" y="5.11923" width="75.3" height="29.7615" rx="14.8808" fill="#4F4F4F" stroke="url(#paint0_linear_302_3)" stroke-width="1.3"/>
<mask id="mask0_302_3" style="mask-type:alpha" maskUnits="userSpaceOnUse" x="15" y="5" width="74" height="30">
<rect x="15" y="5.76923" width="74" height="28.4615" rx="14.2308" fill="black"/>
</mask>
<g mask="url(#mask0_302_3)">
<g filter="url(#filter0_i_302_3)">
<rect x="15" y="5.76923" width="74" height="28.4615" rx="14.2308" fill="#1F2533"/>
</g>
<path d="M21.5462 14.3077L21.7768 14.9309L22.4 15.1615L21.7768 15.3921L21.5462 16.0154L21.3156 15.3921L20.6923 15.1615L21.3156 14.9309L21.5462 14.3077Z" fill="#DEE5F3"/>
<path d="M31.7923 18.8615L32.0229 19.4848L32.6461 19.7154L32.0229 19.946L31.7923 20.5692L31.5616 19.946L30.9384 19.7154L31.5616 19.4848L31.7923 18.8615Z" fill="#DEE5F3"/>
<path d="M23.823 29.1077L24.0536 29.7309L24.6769 29.9615L24.0536 30.1921L23.823 30.8154L23.5924 30.1921L22.9692 29.9615L23.5924 29.7309L23.823 29.1077Z" fill="#DEE5F3"/>
<path d="M26.6693 20.5692L26.7461 20.777L26.9539 20.8538L26.7461 20.9307L26.6693 21.1384L26.5924 20.9307L26.3846 20.8538L26.5924 20.777L26.6693 20.5692Z" fill="#DEE5F3"/>
<path d="M22.1154 24.5538L22.1922 24.7616L22.4 24.8384L22.1922 24.9153L22.1154 25.1231L22.0385 24.9153L21.8307 24.8384L22.0385 24.7616L22.1154 24.5538Z" fill="#DEE5F3"/>
<path d="M28.5193 30.2461L28.6346 30.5578L28.9462 30.6731L28.6346 30.7884L28.5193 31.1L28.404 30.7884L28.0923 30.6731L28.404 30.5578L28.5193 30.2461Z" fill="#DEE5F3"/>
<g filter="url(#filter1_f_302_3)">
<path d="M21.1192 18.8615L21.2346 19.1731L21.5462 19.2884L21.2346 19.4038L21.1192 19.7154L21.0039 19.4038L20.6923 19.2884L21.0039 19.1731L21.1192 18.8615Z" fill="#DEE5F3"/>
</g>
<path d="M18.7 27.4L18.7769 27.6077L18.9846 27.6846L18.7769 27.7615L18.7 27.9692L18.6231 27.7615L18.4154 27.6846L18.6231 27.6077L18.7 27.4Z" fill="#DEE5F3"/>
<path d="M32.9307 26.2615L33.0076 26.4693L33.2153 26.5462L33.0076 26.623L32.9307 26.8308L32.8539 26.623L32.6461 26.5462L32.8539 26.4693L32.9307 26.2615Z" fill="#DEE5F3"/>
<path d="M27.8077 11.4615L27.8846 11.6693L28.0923 11.7461L27.8846 11.823L27.8077 12.0307L27.7308 11.823L27.5231 11.7461L27.7308 11.6693L27.8077 11.4615Z" fill="#DEE5F3"/>
<path d="M16.423 20.5692L16.4999 20.777L16.7077 20.8538L16.4999 20.9307L16.423 21.1384L16.3462 20.9307L16.1384 20.8538L16.3462 20.777L16.423 20.5692Z" fill="#DEE5F3"/>
<path d="M36.3462 8.61539L36.5768 9.23862L37.2 9.46923L36.5768 9.69985L36.3462 10.3231L36.1155 9.69985L35.4923 9.46923L36.1155 9.23862L36.3462 8.61539Z" fill="#DEE5F3"/>
<path d="M49.4384 14.3077L49.6691 14.9309L50.2923 15.1615L49.6691 15.3921L49.4384 16.0154L49.2078 15.3921L48.5846 15.1615L49.2078 14.9309L49.4384 14.3077Z" fill="#DEE5F3"/>
<path d="M41.4692 27.4L41.6998 28.0232L42.323 28.2538L41.6998 28.4845L41.4692 29.1077L41.2386 28.4845L40.6154 28.2538L41.2386 28.0232L41.4692 27.4Z" fill="#DEE5F3"/>
<path d="M44.3154 16.0154L44.3923 16.2231L44.6001 16.3L44.3923 16.3769L44.3154 16.5846L44.2386 16.3769L44.0308 16.3L44.2386 16.2231L44.3154 16.0154Z" fill="#DEE5F3"/>
<path d="M42.0385 22.2769L42.1153 22.4847L42.3231 22.5615L42.1153 22.6384L42.0385 22.8461L41.9616 22.6384L41.7538 22.5615L41.9616 22.4847L42.0385 22.2769Z" fill="#DEE5F3"/>
<path d="M45.027 19.4308L45.1423 19.7424L45.4539 19.8577L45.1423 19.973L45.027 20.2846L44.9117 19.973L44.6 19.8577L44.9117 19.7424L45.027 19.4308Z" fill="#DEE5F3"/>
<g filter="url(#filter2_f_302_3)">
<path d="M38.7654 14.3077L38.8807 14.6193L39.1923 14.7346L38.8807 14.8499L38.7654 15.1615L38.6501 14.8499L38.3384 14.7346L38.6501 14.6193L38.7654 14.3077Z" fill="#DEE5F3"/>
</g>
<g filter="url(#filter3_f_302_3)">
<path d="M36.3461 22.2769L36.423 22.4847L36.6308 22.5615L36.423 22.6384L36.3461 22.8461L36.2693 22.6384L36.0615 22.5615L36.2693 22.4847L36.3461 22.2769Z" fill="#DEE5F3"/>
</g>
<path d="M50.5769 21.7077L50.6538 21.9154L50.8615 21.9923L50.6538 22.0692L50.5769 22.2769L50.5 22.0692L50.2923 21.9923L50.5 21.9154L50.5769 21.7077Z" fill="#DEE5F3"/>
<path d="M47.7308 10.3231L47.8077 10.5308L48.0154 10.6077L47.8077 10.6845L47.7308 10.8923L47.6539 10.6845L47.4462 10.6077L47.6539 10.5308L47.7308 10.3231Z" fill="#DEE5F3"/>
<path d="M34.0692 16.0154L34.1461 16.2231L34.3538 16.3L34.1461 16.3769L34.0692 16.5846L33.9924 16.3769L33.7846 16.3L33.9924 16.2231L34.0692 16.0154Z" fill="#DEE5F3"/>
</g>
<defs>
<filter id="filter0_i_302_3" x="15" y="5.76923" width="74" height="36.2615" filterUnits="userSpaceOnUse" color-interpolation-filters="sRGB">
<feFlood flood-opacity="0" result="BackgroundImageFix"/>
<feBlend mode="normal" in="SourceGraphic" in2="BackgroundImageFix" result="shape"/>
<feColorMatrix in="SourceAlpha" type="matrix" values="0 0 0 0 0 0 0 0 0 0 0 0 0 0 0 0 0 0 127 0" result="hardAlpha"/>
<feOffset dy="7.8"/>
<feGaussianBlur stdDeviation="5.85"/>
<feComposite in2="hardAlpha" operator="arithmetic" k2="-1" k3="1"/>
<feColorMatrix type="matrix" values="0 0 0 0 0.0903125 0 0 0 0 0.105719 0 0 0 0 0.141667 0 0 0 1 0"/>
<feBlend mode="normal" in2="shape" result="effect1_innerShadow_302_3"/>
</filter>
<filter id="filter1_f_302_3" x="20.4323" y="18.6015" width="1.37382" height="1.37385" filterUnits="userSpaceOnUse" color-interpolation-filters="sRGB">
<feFlood flood-opacity="0" result="BackgroundImageFix"/>
<feBlend mode="normal" in="SourceGraphic" in2="BackgroundImageFix" result="shape"/>
<feGaussianBlur stdDeviation="0.13" result="effect1_foregroundBlur_302_3"/>
</filter>
<filter id="filter2_f_302_3" x="38.0784" y="14.0477" width="1.37382" height="1.37385" filterUnits="userSpaceOnUse" color-interpolation-filters="sRGB">
<feFlood flood-opacity="0" result="BackgroundImageFix"/>
<feBlend mode="normal" in="SourceGraphic" in2="BackgroundImageFix" result="shape"/>
<feGaussianBlur stdDeviation="0.13" result="effect1_foregroundBlur_302_3"/>
</filter>
<filter id="filter3_f_302_3" x="35.8015" y="22.0169" width="1.08921" height="1.08923" filterUnits="userSpaceOnUse" color-interpolation-filters="sRGB">
<feFlood flood-opacity="0" result="BackgroundImageFix"/>
<feBlend mode="normal" in="SourceGraphic" in2="BackgroundImageFix" result="shape"/>
<feGaussianBlur stdDeviation="0.13" result="effect1_foregroundBlur_302_3"/>
</filter>
<linearGradient id="paint0_linear_302_3" x1="52.8538" y1="-1.06154" x2="53.1385" y2="43.0538" gradientUnits="userSpaceOnUse">
<stop offset="0.125"/>
<stop offset="1" stop-color="white" stop-opacity="0"/>
</linearGradient>
</defs>
</svg>
