<svg width="104" height="40" viewBox="0 0 104 40" fill="none" xmlns="http://www.w3.org/2000/svg">
<rect x="14.35" y="5.11923" width="75.3" height="29.7615" rx="14.8808" fill="#A2D1FD" stroke="url(#paint0_linear_302_2)" stroke-width="1.3"/>
<mask id="mask0_302_2" style="mask-type:alpha" maskUnits="userSpaceOnUse" x="15" y="5" width="74" height="30">
<rect x="15" y="5.76923" width="74" height="28.4615" rx="14.2308" fill="#E0FDFF"/>
</mask>
<g mask="url(#mask0_302_2)">
<g filter="url(#filter0_i_302_2)">
<rect x="15" y="5.76923" width="74" height="28.4615" rx="14.2308" fill="#A2D1FD"/>
</g>
<g opacity="0.95">
<circle cx="55.3937" cy="31.5344" r="5.97692" transform="rotate(-3.84411 55.3937 31.5344)" fill="white"/>
<circle cx="63.6839" cy="27.5543" r="5.97692" transform="rotate(-3.84411 63.6839 27.5543)" fill="white"/>
<circle cx="64.1419" cy="34.3697" r="5.97692" transform="rotate(-3.84411 64.1419 34.3697)" fill="white"/>
<circle cx="71.1818" cy="28.762" r="5.97692" transform="rotate(-3.84411 71.1818 28.762)" fill="white"/>
<circle cx="74.4031" cy="34.2507" r="5.97692" transform="rotate(-3.84411 74.4031 34.2507)" fill="white"/>
<circle cx="80.3835" cy="29.8553" r="5.97692" transform="rotate(-3.84411 80.3835 29.8553)" fill="white"/>
</g>
<g opacity="0.95">
<circle cx="25.5777" cy="36.9009" r="5.97692" transform="rotate(-3.84411 25.5777 36.9009)" fill="white"/>
<circle cx="33.868" cy="32.9208" r="5.97692" transform="rotate(-3.84411 33.868 32.9208)" fill="white"/>
<circle cx="34.326" cy="39.7362" r="5.97692" transform="rotate(-3.84411 34.326 39.7362)" fill="white"/>
<circle cx="41.3658" cy="34.1285" r="5.97692" transform="rotate(-3.84411 41.3658 34.1285)" fill="white"/>
<circle cx="44.5872" cy="39.6172" r="5.97692" transform="rotate(-3.84411 44.5872 39.6172)" fill="white"/>
<circle cx="50.5676" cy="35.2218" r="5.97692" transform="rotate(-3.84411 50.5676 35.2218)" fill="white"/>
</g>
<g opacity="0.6">
<circle cx="60.5783" cy="23.8076" r="5.97692" transform="rotate(-3.84411 60.5783 23.8076)" fill="white"/>
<circle cx="68.8686" cy="19.8275" r="5.97692" transform="rotate(-3.84411 68.8686 19.8275)" fill="white"/>
<circle cx="69.3265" cy="26.6429" r="5.97692" transform="rotate(-3.84411 69.3265 26.6429)" fill="white"/>
<circle cx="76.3664" cy="21.0352" r="5.97692" transform="rotate(-3.84411 76.3664 21.0352)" fill="white"/>
<circle cx="79.5879" cy="26.5239" r="5.97692" transform="rotate(-3.84411 79.5879 26.5239)" fill="white"/>
<circle cx="85.5681" cy="22.1285" r="5.97692" transform="rotate(-3.84411 85.5681 22.1285)" fill="white"/>
</g>
<g opacity="0.6">
<circle cx="35.3246" cy="33.3224" r="5.97692" transform="rotate(-4.59401 35.3246 33.3224)" fill="white"/>
<circle cx="43.5621" cy="29.2342" r="5.97692" transform="rotate(-4.59401 43.5621 29.2342)" fill="white"/>
<circle cx="44.1092" cy="36.043" r="5.97692" transform="rotate(-4.59401 44.1092 36.043)" fill="white"/>
<circle cx="51.0751" cy="30.3437" r="5.97692" transform="rotate(-4.59401 51.0751 30.3437)" fill="white"/>
<circle cx="54.3681" cy="35.7897" r="5.97692" transform="rotate(-4.59401 54.3681 35.7897)" fill="white"/>
<circle cx="60.2903" cy="31.3164" r="5.97692" transform="rotate(-4.59401 60.2903 31.3164)" fill="white"/>
</g>
</g>
<defs>
<filter id="filter0_i_302_2" x="15" y="5.76923" width="74" height="36.2615" filterUnits="userSpaceOnUse" color-interpolation-filters="sRGB">
<feFlood flood-opacity="0" result="BackgroundImageFix"/>
<feBlend mode="normal" in="SourceGraphic" in2="BackgroundImageFix" result="shape"/>
<feColorMatrix in="SourceAlpha" type="matrix" values="0 0 0 0 0 0 0 0 0 0 0 0 0 0 0 0 0 0 127 0" result="hardAlpha"/>
<feOffset dy="7.8"/>
<feGaussianBlur stdDeviation="5.85"/>
<feComposite in2="hardAlpha" operator="arithmetic" k2="-1" k3="1"/>
<feColorMatrix type="matrix" values="0 0 0 0 0.445833 0 0 0 0 0.734 0 0 0 0 1 0 0 0 1 0"/>
<feBlend mode="normal" in2="shape" result="effect1_innerShadow_302_2"/>
</filter>
<linearGradient id="paint0_linear_302_2" x1="52.8538" y1="-1.06154" x2="53.1385" y2="43.0538" gradientUnits="userSpaceOnUse">
<stop offset="0.125" stop-color="#6CB8FF"/>
<stop offset="1" stop-color="white" stop-opacity="0"/>
</linearGradient>
</defs>
</svg>
