<svg width="24" height="22" viewBox="0 0 24 22" fill="none" xmlns="http://www.w3.org/2000/svg">
<path d="M10.5964 20.0475L10.5957 20.0469C7.49564 17.2383 4.96301 14.9431 3.19938 12.7889C1.44149 10.6416 0.5 8.69555 0.5 6.59401C0.5 3.17793 3.17971 0.5 6.6 0.5C8.53678 0.5 10.4033 1.40323 11.6195 2.83006L12 3.27652L12.3805 2.83006C13.5967 1.40323 15.4632 0.5 17.4 0.5C20.8203 0.5 23.5 3.17793 23.5 6.59401C23.5 8.69556 22.5585 10.6416 20.8005 12.7905C19.0407 14.9415 16.5154 17.2343 13.4247 20.0404L13.405 20.0583L13.4039 20.0592L12.0013 21.3253L10.5964 20.0475Z" stroke="#606060"/>
</svg>
