<svg width="20" height="19" viewBox="0 0 20 19" fill="none" xmlns="http://www.w3.org/2000/svg">
<path d="M8.88659 16.9852L8.88587 16.9846C6.30081 14.6404 4.19567 12.7306 2.73078 10.9396C1.27162 9.15569 0.5 7.55071 0.5 5.82495C0.5 3.02109 2.69614 0.824951 5.5 0.824951C7.08861 0.824951 8.62112 1.56692 9.61932 2.73912L10 3.18615L10.3807 2.73912C11.3789 1.56692 12.9114 0.824951 14.5 0.824951C17.3039 0.824951 19.5 3.02109 19.5 5.82495C19.5 7.55072 18.7284 9.15572 17.2691 10.941C15.8065 12.7304 13.7058 14.6394 11.1265 16.9833L11.1148 16.9939L11.1137 16.9949L10.0013 18L8.88659 16.9852Z" stroke="#A5A5A5"/>
</svg>
