<svg width="38" height="38" viewBox="0 0 38 38" fill="none" xmlns="http://www.w3.org/2000/svg">
<path d="M22.5625 3.5625C22.5625 5.53004 20.9668 7.125 19 7.125C17.0332 7.125 15.4375 5.53004 15.4375 3.5625C15.4375 1.59496 17.0332 0 19 0C20.9668 0 22.5625 1.59496 22.5625 3.5625ZM22.5625 34.4375C22.5625 36.4043 20.9668 38 19 38C17.0332 38 15.4375 36.4043 15.4375 34.4375C15.4375 32.4707 17.0332 30.875 19 30.875C20.9668 30.875 22.5625 32.4707 22.5625 34.4375ZM0 19C0 17.0332 1.59496 15.4375 3.5625 15.4375C5.53004 15.4375 7.125 17.0332 7.125 19C7.125 20.9668 5.53004 22.5625 3.5625 22.5625C1.59496 22.5625 0 20.9668 0 19ZM38 19C38 20.9668 36.4043 22.5625 34.4375 22.5625C32.4707 22.5625 30.875 20.9668 30.875 19C30.875 17.0332 32.4707 15.4375 34.4375 15.4375C36.4043 15.4375 38 17.0332 38 19ZM5.56492 32.4336C4.17332 31.0457 4.17332 28.7895 5.56492 27.3941C6.95652 26.0063 9.21055 26.0063 10.6059 27.3941C11.9937 28.7895 11.9937 31.0457 10.6059 32.4336C9.21055 33.8289 6.95652 33.8289 5.56492 32.4336ZM10.6059 10.6059C9.21055 11.9937 6.95652 11.9937 5.56492 10.6059C4.17406 9.21055 4.17406 6.95652 5.56492 5.56492C6.95652 4.17332 9.21055 4.17332 10.6059 5.56492C11.9937 6.95652 11.9937 9.21055 10.6059 10.6059ZM27.3941 27.3941C28.7895 26.0063 31.0457 26.0063 32.4336 27.3941C33.8289 28.7895 33.8289 31.0457 32.4336 32.4336C31.0457 33.8289 28.7895 33.8289 27.3941 32.4336C26.0063 31.0457 26.0063 28.7895 27.3941 27.3941Z" fill="#4E3E8B"/>
</svg>
