<svg width="18" height="19" viewBox="0 0 18 19" fill="none" xmlns="http://www.w3.org/2000/svg">
<path d="M15.1579 5.23684V8.06947C15.1579 8.06947 13.2726 8.07895 13.2632 8.06947V5.23684H10.4211C10.4211 5.23684 10.4305 3.35158 10.4211 3.34211H13.2632V0.5H15.1579V3.34211H18V5.23684H15.1579ZM12.3158 9.02632V6.18421H9.47368V3.34211H1.89474C0.852632 3.34211 0 4.19474 0 5.23684V16.6053C0 17.6474 0.852632 18.5 1.89474 18.5H13.2632C14.3053 18.5 15.1579 17.6474 15.1579 16.6053V9.02632H12.3158ZM1.89474 16.6053L4.73684 12.8158L6.63158 15.6579L9.47368 11.8684L13.2632 16.6053H1.89474Z" fill="#7464B3"/>
</svg>
