<svg width="20" height="20" viewBox="0 0 20 20" fill="none" xmlns="http://www.w3.org/2000/svg">
<path d="M4.66406 1.72271C5.57422 1.57114 6.49219 1.64849 7.30859 1.93091L9.28906 4.95708L6.33984 7.90239C6.28125 7.96489 6.21484 8.01177 6.25 8.13286C6.25 8.21489 6.25391 8.29693 6.35156 8.35552L10.7266 12.418C10.8398 12.5235 10.9805 12.5274 11.1367 12.4297C11.2578 12.3282 11.2852 12.1563 11.2031 12.0235L8.84375 8.19146L12.3867 5.23833C12.4883 5.12115 12.5273 5.01958 12.4805 4.89458L11.5938 2.41177C12.7109 1.75904 14.0312 1.50513 15.3359 1.72271C18.0273 2.17114 20 4.50005 20 7.23052V7.45708C20 9.07818 19.3281 10.629 18.1406 11.7344L11.082 18.3243C10.7891 18.5977 10.4023 18.7501 10 18.7501C9.59766 18.7501 9.21094 18.5977 8.91797 18.3243L1.85898 11.7344C0.673047 10.629 0 9.07818 0 7.45708V7.23052C0 4.50005 1.97344 2.17114 4.66406 1.72232V1.72271Z" fill="#EB4F4F"/>
</svg>
