<svg width="19" height="20" viewBox="0 0 19 20" fill="none" xmlns="http://www.w3.org/2000/svg">
<g clip-path="url(#clip0_465_2588)">
<path d="M13.8455 0.940386C14.8883 -0.118475 16.5805 -0.118475 17.6232 0.940386L18.0723 1.39682C19.115 2.45579 19.115 4.17267 18.0723 5.23089L10.7543 12.661C10.4314 12.9849 10.0344 13.2222 9.59648 13.3502L5.88555 14.4272C5.57383 14.5176 5.23984 14.4272 5.00977 14.1636C4.7834 13.964 4.69434 13.6251 4.7834 13.3088L5.84473 9.54286C5.9709 9.09848 6.20469 8.69553 6.52383 8.3679L13.8455 0.940386ZM16.3318 2.21854C16.0164 1.86567 15.4523 1.86567 15.1035 2.21854L14.0236 3.31404L15.7344 5.05013L16.8143 3.92035C17.1631 3.60025 17.1631 3.02783 16.8143 2.67497L16.3318 2.21854ZM7.55918 10.04L6.93574 12.243L9.10664 11.6103C9.25508 11.5689 9.38496 11.4898 9.49258 11.3806L14.4764 6.32677L12.7656 4.59069L7.78555 9.64831C7.67793 9.75752 7.6 9.88932 7.55918 10.04ZM7.42188 2.41022C7.91543 2.41022 8.3125 2.81506 8.3125 3.31404C8.3125 3.81491 7.91543 4.21786 7.42188 4.21786H3.26562C2.44588 4.21786 1.78125 4.89196 1.78125 5.72422V15.9675C1.78125 16.7998 2.44588 17.4739 3.26562 17.4739H13.3594C14.1795 17.4739 14.8438 16.7998 14.8438 15.9675V11.7497C14.8438 11.2488 15.2408 10.8459 15.7344 10.8459C16.2279 10.8459 16.625 11.2488 16.625 11.7497V15.9675C16.625 17.7977 15.1629 19.2815 13.3594 19.2815H3.26562C1.46211 19.2815 0 17.7977 0 15.9675V5.72422C0 3.89399 1.46211 2.41022 3.26562 2.41022H7.42188Z" fill="#4F4F4F"/>
</g>
<defs>
<clipPath id="clip0_465_2588">
<rect width="19" height="19.2815" fill="white"/>
</clipPath>
</defs>
</svg>
